<svg xmlns="http://www.w3.org/2000/svg" viewBox="0 0 263 221.355"><defs><style>.a{fill:#fff;}</style></defs><title>mascot-negative</title><path class="a" d="M207.988,1.933C171.028,1.578,170.58.982,129.726.7,112.5.58,95.981,0,80.919,0,41.468,0,11.976,3.953,5.711,30.409c-10.975,46.36-9.928,121,37.757,141.871,43.495,19.035,69.918,3.752,69.918,49.075,0,0,17.253-33.317,54.545-34.352,81.783-2.259,91.424-39.367,94.049-88.254C262.408,26.5,273.867,2.563,207.988,1.933ZM106.482,69.4v0a3.034,3.034,0,0,1-1.515.847,3.6,3.6,0,0,1-.784.082c-2.28,0-4.111-2.124-4.885-5.682-.975-4.45.125-9.736,3.6-10.52l.54-.079c.893-.053,2.326.277,3.524,2.444C109.1,60.412,108.863,67.042,106.482,69.4Zm36.265,78.363a26.147,26.147,0,0,1-10.853,2.494,20.372,20.372,0,0,1-9.1-2.079c-6.068-2.984-10.376-8.863-12.151-16.548l-.452-1.946,7.589-1.746.442,1.947c1.235,5.355,4.084,9.374,8.014,11.317,3.814,1.871,8.4,1.7,13.287-.524l1.812-.826,3.227,7.088Zm12.51-47.039,2.977,9.523-7.114,2.226-2.83-9.071a25.7,25.7,0,0,1-12.836-.036l-1.515-.471.577-7.9,2.335.63a20.95,20.95,0,0,0,11.341-.116A10.445,10.445,0,0,0,154.239,91a8.392,8.392,0,0,0,.639-6.9c-1.423-4.575-5.109-6.8-12.727-7.674-8.327-1.012-16.407-3.133-19.1-11.74-2.336-7.5.741-14.825,7.842-18.923l-2.885-9.232,7.115-2.214,2.766,8.844a22.863,22.863,0,0,1,10.491-.128l1.677.4-.656,7.685-2.137-.366a20.14,20.14,0,0,0-9.852.389,8.78,8.78,0,0,0-5.527,4.37,7.58,7.58,0,0,0-.5,5.639c1.245,3.97,4.256,5.534,12.889,6.7,11.2,1.439,16.749,5.151,19.147,12.829C165.939,88.739,162.74,96.509,155.257,100.728Zm19.374-32.46a3.019,3.019,0,0,1-1.479.846,3.956,3.956,0,0,1-.84.092c-3.254,0-4.489-3.975-4.868-5.685-.972-4.456.128-9.743,3.607-10.523l.467-.073c1.058-.095,2.418.29,3.591,2.444C177.253,59.279,177.009,65.909,174.631,68.268Z"/></svg>