<svg xmlns="http://www.w3.org/2000/svg" viewBox="0 0 28 32"><defs><style>.a{fill:#fff;fill-rule:evenodd;}</style></defs><title>Asset 1</title><path class="a" d="M18,22.667a.66.66,0,0,1-.472-.2l-4-4a.658.658,0,0,1-.2-.467V8.667a.667.667,0,0,1,1.334,0V17.72l3.805,3.813A.667.667,0,0,1,18,22.667ZM14,5.333A12.667,12.667,0,1,0,26.667,18,12.68,12.68,0,0,0,14,5.333Zm.667-4H13.333V4.016C13.554,4.005,13.777,4,14,4s.446,0,.667.016Zm7.188,5.083,1.612-2.149a.674.674,0,0,1,.933-.134.667.667,0,0,1,.133.934L22.92,7.217A13.993,13.993,0,1,1,12,4.142V1.333h-.667a.663.663,0,0,1-.666-.666A.663.663,0,0,1,11.333,0h5.334a.663.663,0,0,1,.666.667.663.663,0,0,1-.666.666H16V4.142A13.925,13.925,0,0,1,21.855,6.416Z"/></svg>