<svg xmlns="http://www.w3.org/2000/svg" xmlns:xlink="http://www.w3.org/1999/xlink" viewBox="0 0 376 75"><defs><style>.a{fill:#0047f5;}.b{fill:url(#a);}.c{fill:#1e1147;}</style><radialGradient id="a" cx="-313.705" cy="466.485" r="0.992" gradientTransform="matrix(60.663, 0, 0, -60.663, 19085.306, 28324.754)" gradientUnits="userSpaceOnUse"><stop offset="0" stop-color="#abe7f9"/><stop offset="0.019" stop-color="#abe7f9"/><stop offset="0.092" stop-color="#a6e5f6"/><stop offset="0.182" stop-color="#96dfef"/><stop offset="0.282" stop-color="#7dd5e3"/><stop offset="0.388" stop-color="#5ac7d2"/><stop offset="0.45" stop-color="#42bec6"/><stop offset="1" stop-color="#0047f4"/></radialGradient></defs><title>Moneysmart-Horizontal-Positive-RGB-whole-pixel</title><rect class="a" x="272.109" y="63.963" width="3.605" height="3.678"/><path class="a" d="M278.033,70.163c0-1.892,1.3-3.29,3.362-4.1a2.434,2.434,0,0,1-1.575-2.346c0-1.194.982-2.209,2.313-2.98a6.117,6.117,0,0,1-2.841-5.326c0-3.889,3.118-6.658,7.535-6.658a8.13,8.13,0,0,1,5.471,1.931,9.817,9.817,0,0,1,4.377-1.72v2.663a9.7,9.7,0,0,0-3.329.593,5.485,5.485,0,0,1,.943,3.191c0,3.994-3.151,6.591-7.462,6.591a10.026,10.026,0,0,1-2.941-.454c-.771.349-1.3.8-1.3,1.43,0,.772.593,1.128,2.557,1.3l3.784.317c4.7.316,7.08,1.82,7.08,4.8,0,3.507-3.678,5.359-9.037,5.359-6.243,0-8.939-1.786-8.939-4.587m15.207-.488c0-1.648-1.225-2.386-5.115-2.663l-3.507-.244c-.349-.04-.7-.073-1.048-.105-1.786.626-2.736,1.785-2.736,3.044,0,1.86,1.932,2.769,6.52,2.769,3.679,0,5.886-1.121,5.886-2.8m-1.753-14.193c0-2.7-1.681-4.383-4.66-4.383-2.874,0-4.661,1.72-4.661,4.383s1.859,4.311,4.7,4.311,4.621-1.648,4.621-4.311"/><path class="a" d="M297.97,58.389c0-6.381,4.068-9.637,8.623-9.637,4.515,0,8.583,3.256,8.583,9.637,0,6.342-4.068,9.638-8.583,9.638s-8.623-3.3-8.623-9.638m14.16,0c0-3.856-1.859-7.04-5.537-7.04-3.54,0-5.577,2.867-5.577,7.04,0,3.922,1.825,7.08,5.577,7.08,3.5,0,5.537-2.841,5.537-7.08"/><polygon class="a" points="316.26 49.139 319.484 49.139 324.672 64.136 324.737 64.136 329.86 49.139 332.872 49.139 326.108 67.709 323.056 67.709 316.26 49.139"/><rect class="a" x="332.159" y="63.963" width="3.612" height="3.678"/><path class="a" d="M339.479,63.26c0-3.75,3.191-6.414,12.367-7.706v-.843c0-2.313-1.226-3.435-3.5-3.435a9.909,9.909,0,0,0-6.691,2.8l-1.582-1.892a12.362,12.362,0,0,1,8.59-3.435c4.416,0,6.163,2.314,6.163,6.171v8.161a12.761,12.761,0,0,0,.528,4.555h-3.086a7.8,7.8,0,0,1-.422-2.558,9.972,9.972,0,0,1-7.145,2.841c-3.191,0-5.222-1.681-5.222-4.661m12.367-.421V57.651c-7.04,1.127-9.386,2.841-9.386,5.155,0,1.786,1.192,2.728,3.117,2.728a8.8,8.8,0,0,0,6.269-2.7"/><path class="a" d="M358.576,62.49V49.142h3.012V61.857c0,2.453,1.056,3.612,3.4,3.612,2.241,0,4.061-1.159,5.992-2.979V49.142h3.046v18.5h-3.046V64.87a9.919,9.919,0,0,1-6.941,3.117c-3.54,0-5.465-2-5.465-5.5"/><path d="M366.853,12.716V3.7h-4.382v9.016h-4.685v.56h0v3.437h4.686v16.94c0,4.687,1.834,6.876,7.488,6.876a24.071,24.071,0,0,0,3.822-.305V36.608a11.021,11.021,0,0,1-2.751.356c-3.261,0-4.177-1.426-4.177-4.28V16.713h6.978v-4Zm-22.5,5.553h-.1V13.276h-4.382v26.9h4.382V22.8c1.986-3.821,5.2-6.061,9.474-6.061a10.635,10.635,0,0,1,1.274.051V12.717h-.255a11.542,11.542,0,0,0-10.391,5.552m-12.084,7.387c-10.239,1.629-13.652,4.125-13.652,7.487,0,2.6,1.732,3.972,4.534,3.972a12.8,12.8,0,0,0,9.118-3.922Zm4.329,7.9c0,3.259.2,5.246.765,6.622h-4.483a11.345,11.345,0,0,1-.611-3.718A14.542,14.542,0,0,1,321.88,40.58c-4.637,0-7.591-2.445-7.591-6.774,0-5.45,4.636-9.323,17.982-11.208V21.376c0-3.362-1.783-4.992-5.094-4.992-4.075,0-7.082,1.784-9.73,4.075l-2.293-2.751a17.907,17.907,0,0,1,12.482-4.991c6.419,0,8.964,3.361,8.964,8.965ZM303.718,12.717c-4.024,0-7.334,2.19-9.932,4.737-.918-2.8-2.854-4.737-7.387-4.737-4.024,0-7.131,2.088-9.678,4.635V13.276H272.34v26.9h4.381V20.815c2.852-2.647,5.4-4.329,8.354-4.329,3.515,0,4.687,1.682,4.687,5.247v18.44h4.38V20.815c2.8-2.647,5.3-4.329,8.3-4.329,3.515,0,4.686,1.682,4.686,5.247v18.44h4.381V20.765c0-4.839-2.293-8.048-7.794-8.048M259.329,24.28c-4.228-.968-6.367-1.885-6.367-4.381,0-1.885,1.527-3.617,5.45-3.617a11.616,11.616,0,0,1,7.794,3.209l2.293-2.9a13.977,13.977,0,0,0-10.29-3.872c-5.858,0-9.424,3.261-9.424,7.337,0,5.194,3.921,6.722,9.627,8.1,4.584,1.071,6.928,2.09,6.928,4.789,0,2.753-2.293,4.229-6.47,4.229a11.051,11.051,0,0,1-8.4-3.72L247.817,36.1c2.19,2.65,6.163,4.585,11,4.585,6.113,0,10.748-2.751,10.748-7.9,0-5.553-4.178-7.031-10.239-8.507M235.011,35.028h-.1l-7.895-21.751h-4.637l10.392,27.049-1.018,2.648c-1.07,2.65-2.394,3.821-5.145,3.821a15.5,15.5,0,0,1-3.973-.458l-1.019,3.513a16.383,16.383,0,0,0,5.043.663c5.247,0,7.335-2.547,9.168-7.283L247.34,13.277h-4.433ZM202.716,24.433h14.72c-.356-4.789-2.648-8.049-7.08-8.049-3.617,0-7.03,2.5-7.64,8.049m16.1,8.354,2.548,2.24a12.514,12.514,0,0,1-10.952,5.708c-6.369,0-12.175-4.638-12.175-14.01,0-9.782,6.52-14.009,12.175-14.009,6.366,0,11.206,4.483,11.206,14.213v.917h-19c.151,6.061,3.667,9.322,8.1,9.322,3.871,0,6.061-1.58,8.1-4.381m-32.4-20.07A14.473,14.473,0,0,0,176.323,17.3V13.276h-4.432v26.9h4.432V20.815c2.8-2.647,5.5-4.329,8.711-4.329,3.413,0,4.941,1.682,4.941,5.247v18.44h4.381V20.765c0-5.1-2.8-8.048-7.946-8.048M163.582,26.725c0-5.6-2.7-10.239-8.048-10.239-5.146,0-8.1,4.178-8.1,10.239,0,5.7,2.649,10.289,8.1,10.289,5.092,0,8.048-4.126,8.048-10.289m4.432,0c0,9.219-5.908,14.01-12.48,14.01S143,35.944,143,26.725c0-9.272,5.909-14.009,12.532-14.009,6.572,0,12.48,4.737,12.48,14.009m-28.889-5.96V40.173h-4.381V21.733c0-3.565-1.171-5.247-4.686-5.247-3.006,0-5.5,1.682-8.3,4.329V40.173h-4.38V21.733c0-3.565-1.172-5.247-4.687-5.247-2.955,0-5.5,1.682-8.353,4.329V40.173H99.952v-26.9h4.382v4.076c2.546-2.547,5.654-4.635,9.678-4.635,4.533,0,6.469,1.935,7.386,4.737,2.6-2.547,5.908-4.737,9.933-4.737,5.5,0,7.794,3.209,7.794,8.048"/><path class="b" d="M57.476,63.035c27.506-.761,30.748-13.242,31.63-29.684C89.252,9.052,93.106,1,70.948.789,58.518.67,58.367.47,44.627.374,38.836.334,33.281.14,28.216.14c-13.27,0-23.191,1.329-25.3,10.226-3.692,15.593-3.339,40.7,12.7,47.715,14.627,6.4,23.513,1.263,23.513,16.5C39.131,74.586,44.934,63.381,57.476,63.035Z"/><path class="c" d="M55.958,27.272c-.806-2.583-2.671-3.831-6.44-4.315-2.9-.391-3.916-.918-4.334-2.252a2.55,2.55,0,0,1,.169-1.9,2.953,2.953,0,0,1,1.859-1.47,6.78,6.78,0,0,1,3.313-.131l.719.123.221-2.584-.564-.133a7.691,7.691,0,0,0-3.528.043l-.931-2.974-2.393.744.971,3.105A5.325,5.325,0,0,0,42.382,21.9c.906,2.895,3.624,3.609,6.424,3.949,2.562.295,3.8,1.042,4.281,2.581a2.825,2.825,0,0,1-.215,2.32,3.517,3.517,0,0,1-2.034,1.518,7.037,7.037,0,0,1-3.814.039l-.786-.212-.194,2.657.51.158a8.651,8.651,0,0,0,4.317.013l.952,3.05,2.393-.748-1-3.2A5.578,5.578,0,0,0,55.958,27.272Z"/><path class="c" d="M58.683,17.94l-.157.024c-1.17.262-1.54,2.04-1.213,3.539.127.575.543,1.912,1.637,1.912a1.282,1.282,0,0,0,.283-.031,1.01,1.01,0,0,0,.5-.284c.8-.794.882-3.024.161-4.338C59.5,18.037,59.039,17.907,58.683,17.94Z"/><path class="c" d="M47.921,47.454a5.131,5.131,0,0,1-4.469.177,5.414,5.414,0,0,1-2.695-3.807l-.149-.654-2.552.587.152.654A7.95,7.95,0,0,0,42.3,49.977a6.849,6.849,0,0,0,3.061.7,8.8,8.8,0,0,0,3.651-.839l.609-.277L48.53,47.176Z"/><path class="c" d="M35.785,18.32l-.182.026c-1.167.264-1.537,2.042-1.209,3.538.26,1.2.876,1.911,1.643,1.911a1.261,1.261,0,0,0,.263-.027,1.018,1.018,0,0,0,.51-.285h0c.8-.794.882-3.024.161-4.341C36.567,18.413,36.085,18.3,35.785,18.32Z"/></svg>