<?xml version="1.0" encoding="utf-8"?>
<!-- Generator: Adobe Illustrator 25.3.0, SVG Export Plug-In . SVG Version: 6.00 Build 0)  -->
<svg version="1.1" id="Artwork" xmlns="http://www.w3.org/2000/svg" xmlns:xlink="http://www.w3.org/1999/xlink" x="0px" y="0px"
	 viewBox="0 0 376.8 75.1" style="enable-background:new 0 0 376.8 75.1;" xml:space="preserve">
<style type="text/css">
	.st0{fill:#231F20;}
	.st1{fill:url(#SVGID_1_);}
	.st2{fill:#0E0048;}
	.st3{fill:#FD7241;}
</style>
<path class="st0" d="M369.8,11.8V2.7h-4.4v9.1h-4.7v0.6l0,0v3.5h4.7v17.1c0,4.7,1.9,6.9,7.5,6.9c1.3,0,2.6-0.1,3.9-0.3v-3.6
	c-0.9,0.2-1.8,0.4-2.8,0.4c-3.3,0-4.2-1.4-4.2-4.3V15.8h7v-4L369.8,11.8z M347.1,17.4L347.1,17.4l-0.1-5h-4.4v27.1h4.4V21.9
	c2-3.9,5.2-6.1,9.6-6.1c0.4,0,0.9,0,1.3,0v-4.1h-0.3C353.4,11.6,349.3,13.7,347.1,17.4 M334.9,24.8c-10.3,1.6-13.8,4.2-13.8,7.5
	c0,2.6,1.8,4,4.6,4c3.5,0,6.8-1.5,9.2-4L334.9,24.8z M339.3,32.8c0,3.3,0.2,5.3,0.8,6.7h-4.5c-0.4-1.2-0.6-2.5-0.6-3.8
	c-2.8,2.7-6.6,4.2-10.5,4.2c-4.7,0-7.6-2.5-7.6-6.8c0-5.5,4.7-9.4,18.1-11.3v-1.3c0-3.4-1.8-5-5.1-5c-4.1,0-7.1,1.8-9.8,4.1
	l-2.3-2.8c3.4-3.2,7.9-5,12.6-5c6.5,0,9,3.4,9,9L339.3,32.8z M306.1,11.8c-4,0-7.4,2.2-10,4.8c-0.9-2.8-2.9-4.8-7.5-4.8
	c-4,0-7.2,2.1-9.8,4.7v-4.1h-4.4v27.1h4.4V19.9c2.9-2.7,5.4-4.4,8.4-4.4c3.5,0,4.7,1.7,4.7,5.3v18.6h4.4V19.9
	c2.8-2.7,5.3-4.4,8.4-4.4c3.5,0,4.7,1.7,4.7,5.3v18.6h4.4V19.9C314,15,311.7,11.8,306.1,11.8 M261.4,23.4c-4.3-1-6.4-1.9-6.4-4.4
	c0-1.9,1.5-3.6,5.5-3.6c2.9,0.1,5.7,1.2,7.9,3.2l2.3-2.9c-2.8-2.7-6.5-4.1-10.4-3.9c-5.9,0-9.5,3.3-9.5,7.4c0,5.2,3.9,6.8,9.7,8.2
	c4.6,1.1,7,2.1,7,4.8s-2.3,4.3-6.5,4.3c-3.2,0-6.3-1.3-8.5-3.8l-2.7,2.7C252,38,256,40,260.9,40c6.2,0,10.8-2.8,10.8-8
	C271.7,26.4,267.5,24.9,261.4,23.4 M236.9,34.2h-0.1l-8-21.9h-4.7l10.5,27.3l-1,2.7c-1.1,2.7-2.4,3.8-5.2,3.8c-1.3,0-2.7-0.1-4-0.5
	l-1,3.5c1.6,0.5,3.4,0.7,5.1,0.7c5.3,0,7.4-2.6,9.2-7.3l11.6-30.2h-4.5L236.9,34.2z M204.3,23.6h14.8c-0.4-4.8-2.7-8.1-7.1-8.1
	C208.4,15.5,204.9,18,204.3,23.6 M220.6,32l2.6,2.3c-2.4,3.7-6.6,5.9-11,5.8c-6.4,0-12.3-4.7-12.3-14.1c0-9.9,6.6-14.1,12.3-14.1
	c6.4,0,11.3,4.5,11.3,14.3V27h-19.2c0.1,6.1,3.7,9.4,8.2,9.4C216.3,36.4,218.5,34.8,220.6,32 M187.9,11.8c-3.9,0.1-7.5,1.8-10.2,4.6
	v-4.1h-4.5v27.1h4.5V19.9c2.8-2.7,5.5-4.4,8.8-4.4c3.4,0,5,1.7,5,5.3v18.6h4.4V19.9C195.9,14.7,193.1,11.8,187.9,11.8 M164.9,25.9
	c0-5.6-2.7-10.3-8.1-10.3c-5.2,0-8.2,4.2-8.2,10.3c0,5.8,2.7,10.4,8.2,10.4C161.9,36.2,164.9,32.1,164.9,25.9 M169.4,25.9
	c0,9.3-5.9,14.1-12.6,14.1s-12.6-4.8-12.6-14.1s6-14.1,12.6-14.1S169.4,16.5,169.4,25.9 M140.3,19.9v19.5h-4.4V20.8
	c0-3.6-1.2-5.3-4.7-5.3c-3,0-5.5,1.7-8.4,4.4v19.5h-4.4V20.8c0-3.6-1.2-5.3-4.7-5.3c-3,0-5.6,1.7-8.4,4.4v19.5h-4.5V12.3h4.4v4.1
	c2.6-2.6,5.7-4.7,9.8-4.7c4.6,0,6.5,2,7.4,4.8c2.6-2.6,6-4.8,10-4.8C137.9,11.8,140.2,15,140.3,19.9"/>
<radialGradient id="SVGID_1_" cx="-419.9065" cy="-2.4063" r="1" gradientTransform="matrix(60.66 0 0 60.66 25527.002 174.0923)" gradientUnits="userSpaceOnUse">
	<stop  offset="0" style="stop-color:#ACE8FA"/>
	<stop  offset="0.45" style="stop-color:#42BFC7"/>
	<stop  offset="1" style="stop-color:#0047F5"/>
</radialGradient>
<path class="st1" d="M56.9,63.4c27.7-0.8,31-13.3,31.9-29.9C89,9,92.8,0.9,70.5,0.7C58,0.5,57.8,0.4,44,0.2C38.1,0.2,32.5,0,27.4,0
	C14,0,4,1.3,1.9,10.3c-3.7,15.7-3.4,41,12.8,48.1c14.7,6.5,23.7,1.3,23.7,16.6C38.4,75.1,44.3,63.8,56.9,63.4z"/>
<path class="st2" d="M56.4,26.4c-0.8-2.6-2.7-3.9-6.5-4.3c-2.9-0.4-3.9-0.9-4.4-2.3c-0.2-0.6-0.1-1.3,0.2-1.9
	c0.4-0.7,1.1-1.3,1.9-1.5c1.1-0.3,2.2-0.4,3.3-0.1l0.7,0.1l0.2-2.6l-0.6-0.1c-1.2-0.3-2.4-0.3-3.5,0l-0.9-3l-2.4,0.8l1,3.1
	c-2.4,1.2-3.5,4-2.7,6.5c0.9,2.9,3.6,3.6,6.5,4c2.6,0.3,3.8,1,4.3,2.6c0.3,0.8,0.2,1.6-0.2,2.3c-0.5,0.7-1.2,1.3-2,1.5
	c-1.3,0.4-2.6,0.4-3.8,0l-0.8-0.2l-0.2,2.7l0.5,0.2c1.4,0.4,2.9,0.4,4.3,0l1,3.1l2.4-0.8l-1-3.2C56.1,31.9,57.3,29,56.4,26.4z"/>
<path class="st2" d="M59.1,17H59c-1.2,0.3-1.5,2-1.2,3.6c0.1,0.6,0.5,1.9,1.7,1.9c0.1,0,0.2,0,0.3,0c0.2,0,0.4-0.1,0.5-0.3
	c0.8-0.8,0.9-3,0.2-4.4C59.9,17.1,59.5,17,59.1,17z"/>
<path class="st2" d="M48.3,46.7c-1.4,0.7-3.1,0.8-4.5,0.2c-1.4-0.8-2.4-2.2-2.7-3.9l-0.2-0.7L38.4,43l0.2,0.7c0.4,2.4,2,4.5,4.1,5.6
	c1,0.5,2,0.7,3.1,0.7c1.3,0,2.5-0.3,3.7-0.8l0.6-0.3l-1.1-2.4L48.3,46.7z"/>
<path class="st2" d="M36.1,17.4h-0.2c-1.2,0.3-1.5,2.1-1.2,3.6c0.3,1.2,0.9,1.9,1.7,1.9c0.1,0,0.2,0,0.3,0c0.2,0,0.4-0.1,0.5-0.3
	l0,0c0.8-0.8,0.9-3,0.2-4.4C36.9,17.5,36.4,17.4,36.1,17.4z"/>
<path class="st3" d="M262.3,59.9c0.1-2.2-1.5-4.1-3.7-4.2c-0.2,0-0.3,0-0.5,0c-2.3,0.1-4.3,1.2-5.7,3v12.5H250V54h2.3v2.5
	c1.5-1.9,3.8-2.9,6.2-2.9c4,0,6.2,2.5,6.2,6.2v11.4h-2.4L262.3,59.9z"/>
<path class="st3" d="M271.3,63.3c0.3,3.6,2.7,6.2,6.3,6.2c2.2,0.1,4.3-1.1,5.3-3h2.8c-1.5,3.1-4.6,5.1-8.1,5.1
	c-4.8,0-8.7-3.8-8.7-8.6c0-0.1,0-0.3,0-0.4c0-5.3,3.8-9.1,8.7-9.1c4.5,0,8.6,3.2,8.6,9.7v0.1L271.3,63.3z M271.4,61.3h12.2
	c-0.1-3.2-2.8-5.7-6-5.7C274.1,55.6,271.8,58.1,271.4,61.3L271.4,61.3z"/>
<path class="st3" d="M293.6,46.7V54h4.2v2h-4.2v11.6c0,1.6,1.1,1.7,2.5,1.7c0.6,0,1.2,0,1.8-0.1v2c-0.9,0.1-1.8,0.1-2.6,0.2
	c-1.8,0-4-0.5-4-3.7V56h-3v-2h3v-7.3H293.6z"/>
<path class="st3" d="M322.5,54h2.6l-5,17.2h-3.2l-4.3-14.8l-4.4,14.8h-3.2L300,54h2.6l3.8,15.2l4.6-15.2h2.8l4.6,15.2L322.5,54z"/>
<path class="st3" d="M336.4,53.5c5-0.1,9.1,3.9,9.2,8.9s-3.9,9.1-8.9,9.2c-5,0.1-9.1-3.9-9.2-8.9c0,0,0-0.1,0-0.1
	c-0.1-4.9,3.7-8.9,8.6-9.1C336.2,53.5,336.3,53.5,336.4,53.5z M336.4,55.6c-3.8,0-6.5,3-6.5,7s2.6,7,6.5,7s6.5-3,6.5-7
	S340.2,55.6,336.4,55.6z"/>
<path class="st3" d="M358.3,56.1h-1.2c-3,0-5.2,1.4-5.2,5.5v9.6h-2.3V54h2.3v2.9c0.9-2,2.9-3.3,5.2-3.2c0.4,0,0.8,0,1.3,0.1
	L358.3,56.1z"/>
<path class="st3" d="M364.3,60.6h2.2l6.6-6.6h3.2l-7.9,7.7l8.3,9.5h-3.2l-7.2-8.5h-2.1v8.5h-2.4V43.9h2.4V60.6z"/>
</svg>
