<?xml version="1.0" encoding="utf-8"?>
<!-- Generator: Adobe Illustrator 16.0.0, SVG Export Plug-In . SVG Version: 6.00 Build 0)  -->
<!DOCTYPE svg PUBLIC "-//W3C//DTD SVG 1.1//EN" "http://www.w3.org/Graphics/SVG/1.1/DTD/svg11.dtd">
<svg version="1.1" id="Layer_1" xmlns="http://www.w3.org/2000/svg" xmlns:xlink="http://www.w3.org/1999/xlink" x="0px" y="0px"
	 width="148.75px" height="38.571px" viewBox="0 0 148.75 38.571" enable-background="new 0 0 148.75 38.571" xml:space="preserve">
<g>
	<defs>
		<path id="SVGID_1_" d="M21.283,9.266v10.525h-2.38V9.782c0-1.934-0.635-2.847-2.541-2.847c-1.615,0-2.988,0.914-4.506,2.351
			v10.504H9.475V9.782c0-1.934-0.635-2.847-2.541-2.847c-1.615,0-2.988,0.914-4.534,2.351v10.504H0V5.196h2.38v2.213
			c1.384-1.385,3.068-2.515,5.25-2.515c2.46,0,3.516,1.078,4.01,2.568c1.41-1.383,3.231-2.568,5.384-2.568
			c2.988,0,4.231,1.739,4.231,4.366L21.283,9.266z M36.96,12.496c0,5.001-3.203,7.603-6.773,7.603c-3.569,0-6.799-2.601-6.799-7.603
			s3.23-7.607,6.799-7.607C33.757,4.889,36.96,7.462,36.96,12.496z M34.559,12.496c0-3.042-1.469-5.561-4.372-5.561
			c-2.789,0-4.393,2.271-4.393,5.561c0,3.096,1.438,5.583,4.393,5.583C32.955,18.079,34.559,15.839,34.559,12.496z M46.926,4.894
			h0.017c2.783,0,4.307,1.599,4.307,4.366v10.531h-2.38V9.782c0-1.934-0.84-2.847-2.691-2.847c-1.745,0-3.209,0.914-4.727,2.351
			v10.504h-2.408V5.196h2.407v2.186C42.873,5.858,44.842,4.964,46.926,4.894z M64.51,15.791l1.384,1.216
			c-1.296,1.998-3.542,3.172-5.923,3.096c-3.457,0-6.605-2.52-6.605-7.603c0-5.308,3.537-7.607,6.605-7.607
			c3.457,0,6.083,2.434,6.083,7.714v0.49H55.717c0.081,3.29,1.992,5.055,4.398,5.055c2.101,0,3.29-0.856,4.394-2.375L64.51,15.791
			L64.51,15.791z M55.771,11.252h7.99c-0.189-2.601-1.438-4.373-3.839-4.373C57.957,6.881,56.105,8.238,55.771,11.252z
			 M73.301,17.003L77.62,5.196h2.406l-6.25,16.253c-0.996,2.573-2.126,3.956-4.975,3.956c-0.924,0.023-1.848-0.1-2.735-0.36
			l0.539-1.905c0.705,0.172,1.428,0.256,2.153,0.247c1.492,0,2.212-0.635,2.789-2.072l0.538-1.438L66.42,5.196h2.52l4.307,11.807
			H73.301z M86.503,11.166v0.005c3.29,0.803,5.557,1.604,5.557,4.62c0,2.81-2.52,4.307-5.838,4.307c-2.616,0-4.77-1.077-5.965-2.519
			l1.438-1.438c1.153,1.304,2.818,2.04,4.56,2.019c2.266,0,3.514-0.829,3.514-2.293c0-1.464-1.281-2.018-3.767-2.6
			c-3.097-0.743-5.224-1.572-5.224-4.395c0-2.212,1.933-3.984,5.115-3.984c2.072-0.09,4.089,0.672,5.583,2.105l-1.244,1.572
			c-1.144-1.087-2.653-1.706-4.231-1.737c-2.126,0-2.955,0.941-2.955,1.964C83.047,10.143,84.203,10.629,86.503,11.166z
			 M110.588,4.916l0.013-0.022c2.987,0,4.229,1.739,4.229,4.366v10.531h-2.383V9.782c0-1.934-0.636-2.847-2.542-2.847
			c-1.631,0-2.988,0.914-4.506,2.351v10.504h-2.379V9.782c0-1.934-0.635-2.847-2.541-2.847c-1.604,0-2.988,0.914-4.534,2.351v10.504
			h-2.38V5.196h2.38v2.234c1.384-1.383,3.069-2.513,5.25-2.513c2.46,0,3.516,1.049,4.011,2.567
			C106.609,6.1,108.409,4.916,110.588,4.916z M128.437,16.221c0,1.765,0.113,2.847,0.415,3.591h-2.435
			c-0.222-0.65-0.332-1.333-0.327-2.02c-1.507,1.47-3.539,2.277-5.642,2.24c-2.516,0-4.119-1.324-4.119-3.677
			c0-2.956,2.514-5.057,9.761-6.079V9.588c0-1.819-0.97-2.69-2.768-2.69c-2.212,0-3.844,0.969-5.282,2.212l-1.243-1.49
			c1.821-1.745,4.251-2.71,6.773-2.692c3.482,0,4.846,1.82,4.846,4.846L128.437,16.221z M126.09,11.914
			c-5.562,0.883-7.413,2.24-7.413,4.064c0,1.41,0.941,2.154,2.461,2.154c1.872-0.022,3.658-0.799,4.952-2.154V11.914z
			 M132.648,7.903h0.01c1.187-1.958,3.349-3.113,5.637-3.009h0.141v2.208c-0.229-0.022-0.46-0.031-0.689-0.027
			c-2.327,0-4.07,1.216-5.147,3.29v9.427h-2.375V5.211h2.375v2.692H132.648z M144.857,4.889l3.768,0.016v2.154h-3.768v8.669
			c0,1.55,0.495,2.324,2.267,2.324c0.504-0.002,1.005-0.067,1.491-0.194v1.96c-0.686,0.113-1.38,0.168-2.072,0.168
			c-3.068,0-4.065-1.185-4.065-3.732V7.058h-2.541V5.196V4.889h2.541V0h2.38V4.889z M140.362,31.904v-7.246h1.616v6.902
			c0,1.329,0.569,1.959,1.846,1.959c1.275,0,2.202-0.63,3.23-1.615v-7.246h1.695v10.041h-1.652v-1.502
			c-0.981,1.043-2.34,1.65-3.77,1.691C141.405,34.887,140.362,33.811,140.362,31.904z M136.711,32.093v-2.815
			c-3.822,0.613-5.092,1.545-5.092,2.8c0,0.97,0.646,1.479,1.69,1.479C134.595,33.548,135.821,33.02,136.711,32.093z
			 M129.998,32.324c0-2.035,1.732-3.482,6.713-4.183v-0.458c0-1.254-0.667-1.864-1.9-1.864c-1.356,0.031-2.653,0.573-3.629,1.52
			l-0.861-1.028c1.256-1.199,2.927-1.868,4.663-1.863c2.396,0,3.343,1.255,3.343,3.349v4.432c-0.055,0.835,0.044,1.671,0.29,2.472
			h-1.68c-0.149-0.447-0.226-0.917-0.226-1.39c-1.031,1.016-2.428,1.572-3.875,1.546C131.103,34.855,129.998,33.939,129.998,32.324z
			 M126.024,32.707h1.959v1.998h-1.959V32.707z M117.4,24.658h1.749l2.817,8.14h0.032l2.782-8.14h1.631l-3.672,10.079h-1.653
			L117.4,24.658z M115.154,29.681c0-2.095-1.006-3.822-3.003-3.822s-3.026,1.557-3.026,3.822c0,2.153,0.99,3.838,3.026,3.838
			C114.051,33.519,115.154,31.979,115.154,29.681z M107.472,29.681c0-3.467,2.208-5.233,4.679-5.233
			c2.472,0,4.656,1.767,4.656,5.233s-2.207,5.228-4.656,5.228S107.472,33.122,107.472,29.681z M103.93,28.114
			c0-1.463-0.909-2.38-2.524-2.38c-1.616,0-2.53,0.932-2.53,2.38c0,1.45,1.007,2.338,2.547,2.338
			C102.96,30.452,103.93,29.556,103.93,28.114z M104.882,35.813c0-0.894-0.662-1.292-2.778-1.442l-1.9-0.136l-0.569-0.054
			c-0.97,0.34-1.486,0.971-1.486,1.654c0,1.007,1.048,1.502,3.542,1.502C103.683,37.338,104.882,36.728,104.882,35.813z
			 M96.651,36.073c0-1.029,0.704-1.789,1.824-2.229c-0.533-0.192-0.885-0.704-0.872-1.271c0-0.651,0.538-1.2,1.254-1.615
			c-0.986-0.626-1.571-1.724-1.541-2.891c0-2.11,1.691-3.613,4.093-3.613c1.088-0.019,2.145,0.364,2.965,1.077
			c0.703-0.513,1.521-0.845,2.38-0.969v1.458c-0.615,0-1.225,0.11-1.804,0.324c0.348,0.507,0.526,1.112,0.513,1.727
			c0,2.154-1.712,3.581-4.049,3.581c-0.548-0.001-1.093-0.084-1.615-0.248c-0.42,0.188-0.706,0.437-0.706,0.774
			c0,0.34,0.324,0.614,1.389,0.707l2.053,0.171c2.551,0.173,3.843,0.984,3.843,2.606c0,1.899-1.997,2.907-4.904,2.907
			c-3.386,0-4.845-0.97-4.845-2.487L96.651,36.073z M93.437,32.707h1.955v1.998h-1.955V32.707z"/>
	</defs>
	<clipPath id="SVGID_2_">
		<use xlink:href="#SVGID_1_"  overflow="visible"/>
	</clipPath>
	<rect y="0" clip-path="url(#SVGID_2_)" fill="#FFFFFF" width="148.631" height="38.571"/>
</g>
</svg>
