<?xml version="1.0" encoding="utf-8"?>
<!-- Generator: Adobe Illustrator 16.0.0, SVG Export Plug-In . SVG Version: 6.00 Build 0)  -->
<!DOCTYPE svg PUBLIC "-//W3C//DTD SVG 1.1//EN" "http://www.w3.org/Graphics/SVG/1.1/DTD/svg11.dtd">
<svg version="1.1" id="Layer_1" xmlns="http://www.w3.org/2000/svg" xmlns:xlink="http://www.w3.org/1999/xlink" x="0px" y="0px"
	 width="67px" height="69.41px" viewBox="0 0 67 69.41" enable-background="new 0 0 67 69.41" xml:space="preserve">
<rect fill="#FBFBFB" width="67" height="69"/>
<g>
	<defs>
		<path id="SVGID_1_" d="M32.624,64.41c11.214,0,20.304-0.686,20.304-1.535c0-0.848-9.09-1.536-20.304-1.536
			c-11.212,0-20.304,0.688-20.304,1.536C12.319,63.725,21.411,64.41,32.624,64.41"/>
	</defs>
	<clipPath id="SVGID_2_">
		<use xlink:href="#SVGID_1_"  overflow="visible"/>
	</clipPath>
	<g clip-path="url(#SVGID_2_)">
		<defs>
			<rect id="SVGID_3_" y="5" width="67" height="60"/>
		</defs>
		<clipPath id="SVGID_4_">
			<use xlink:href="#SVGID_3_"  overflow="visible"/>
		</clipPath>
		<rect x="7.319" y="56.339" opacity="0.5" clip-path="url(#SVGID_4_)" fill="#42BFC7" width="50.608" height="13.071"/>
	</g>
</g>
<g>
	<defs>
		<path id="SVGID_5_" d="M36.613,47.583c1.177,0,2.129,0.079,2.129,1.257v0.11c0,1.021-0.732,1.205-1.694,1.241
			c-3.955,1.215-4.542,6.031-4.542,6.031c-0.516-4.545-0.87-5.344-3.098-6.043c-0.36-0.029-0.658-0.116-0.896-0.259
			c-0.036-0.009-0.066-0.019-0.103-0.027h0.069c-0.279-0.181-0.473-0.452-0.473-0.943v-0.11c0-1.178,0.953-1.257,2.13-1.257H36.613z
			 M42.895,9.899c3.553,2.818,5.941,8.109,5.941,13.164c0,3.735-1.339,7.354-3.766,10.187c-1.146,1.337-2.497,2.451-3.982,3.323
			c-0.402,0.941-0.712,1.933-0.864,3.021c-0.151,1.104-0.98,1.859-2.267,1.843c-1.186-0.017-2.37-0.008-3.557-0.004
			c0.141-0.214,0.242-0.455,0.242-0.732v-9.988c0-0.126-0.04-0.24-0.071-0.356c0.587-0.153,1.029-0.664,1.029-1.302
			c0-0.755-0.611-1.366-1.366-1.366h-1.918c-0.753,0-1.367,0.611-1.367,1.366c0,0.638,0.442,1.148,1.031,1.302
			c-0.032,0.116-0.073,0.23-0.073,0.356V40.7c0,0.277,0.103,0.519,0.244,0.732c-1.173-0.002-2.347-0.013-3.519,0.008
			c-1.356,0.021-2.158-0.799-2.317-1.942c-0.105-0.752-0.287-1.461-0.518-2.14c-1.888-0.758-3.525-1.804-4.738-3.103
			c-2.085-2.237-3.145-6.291-3.145-12.046c0-7.061,4.346-12.521,10.806-14.238c0.459-0.148,0.915-0.298,1.401-0.416
			c2.203-0.533,4.436-0.486,6.542,0.017C38.9,7.831,41.064,8.448,42.895,9.899z M29.891,16.57c0.827-0.424,1.151-1.438,0.728-2.263
			c-0.424-0.827-1.438-1.149-2.265-0.728c-2.708,1.391-3.684,3.605-3.786,3.854c-0.354,0.859,0.055,1.842,0.914,2.197
			c0.21,0.087,0.425,0.126,0.639,0.126c0.662,0,1.288-0.392,1.556-1.039C27.682,18.706,28.278,17.399,29.891,16.57z M36.613,44.075
			h-6.477c-1.177,0-2.13-0.051-2.13-0.821v-0.075c0-0.771,0.953-0.821,2.13-0.821h6.477c1.177,0,2.129,0.051,2.129,0.821v0.075
			C38.742,44.024,37.79,44.075,36.613,44.075z M36.613,46.668h-6.477c-1.177,0-2.13-0.047-2.13-0.743v-0.067
			c0-0.695,0.953-0.742,2.13-0.742h6.477c1.177,0,2.129,0.047,2.129,0.742v0.067C38.742,46.621,37.79,46.668,36.613,46.668z
			 M17.046,34.636c0.094,0.049,0.206,0.163,0.212,0.41c0.019,0.829-0.555,1.318-1.016,1.71l-0.075,0.064
			c-0.296,0.253-0.589,0.514-0.879,0.778c-0.581,0.517-1.177,1.056-1.811,1.524c-0.053,0.037-0.1,0.076-0.143,0.114
			c-0.173,0.143-0.364,0.302-0.69,0.302c-0.057,0-0.118-0.006-0.186-0.018c-0.202-0.031-0.358-0.116-0.461-0.249
			c-0.036-0.045-0.062-0.096-0.075-0.149c-0.122-0.477,0.615-1.169,1.382-1.84c0.113-0.1,0.199-0.175,0.24-0.216
			c0.797-0.823,1.549-1.598,2.556-2.185C16.442,34.675,16.791,34.497,17.046,34.636z M15.019,6.659
			c0.907,0.611,2.426,1.633,2.272,2.629l-0.026,0.17l-0.168,0.026c-0.109,0.019-0.208,0.026-0.302,0.026
			c-0.504,0-0.823-0.225-1.11-0.424c-0.069-0.047-0.141-0.098-0.214-0.145h-0.005c-0.232,0-0.547-0.255-1.448-1.076
			c-0.328-0.302-0.667-0.613-0.885-0.772c-0.129-0.096-0.201-0.133-0.268-0.169c-0.094-0.05-0.18-0.095-0.351-0.229
			c-0.051-0.041-0.135-0.09-0.232-0.147c-0.379-0.226-0.85-0.507-0.883-0.891c-0.011-0.118,0.015-0.291,0.204-0.456
			c0.129-0.114,0.272-0.178,0.426-0.195h0.002c0.349-0.052,0.681,0.193,0.939,0.375c0.062,0.045,0.124,0.087,0.18,0.124
			c0.25,0.155,0.452,0.269,0.644,0.375c0.283,0.157,0.551,0.306,0.913,0.564C14.789,6.503,14.897,6.576,15.019,6.659z
			 M11.899,21.795l0.05,0.194c0.034,0.293-0.476,0.739-0.57,0.788c-0.084,0.049-0.178,0.039-0.24,0.028
			c0.001,0,0.001-0.002,0.001-0.002c-0.001,0-0.024,0.021-0.041,0.033c-0.026,0.021-0.056,0.043-0.084,0.063h-0.002
			c-0.242,0.163-0.652,0.122-1.161,0.051c-0.127-0.017-0.242-0.031-0.322-0.035c-0.582-0.03-0.971,0.06-1.357,0.141
			c-0.287,0.06-0.564,0.118-0.879,0.118c-0.351,0-0.747-0.071-1.252-0.295c-0.553-0.243-0.559-0.611-0.535-0.757
			c0.062-0.377,0.499-0.687,1.041-0.735c0.379-0.045,0.75,0.035,1.108,0.104c0.18,0.033,0.356,0.067,0.532,0.088
			c0.188,0.021,0.313,0.033,0.403,0.045c0.186,0.022,0.186,0.026,0.324,0c0.088-0.015,0.22-0.036,0.448-0.065l0.06-0.008
			c1.013-0.139,1.324-0.092,1.481,0.024c0.099,0.073,0.249,0.092,0.44,0.114c0.124,0.017,0.257,0.034,0.396,0.067L11.899,21.795z
			 M52.506,37.777c0.768,0.67,1.506,1.363,1.382,1.838c-0.013,0.055-0.037,0.104-0.071,0.15c-0.11,0.137-0.27,0.223-0.467,0.253
			c-0.067,0.011-0.131,0.017-0.188,0.017c-0.324,0-0.516-0.161-0.688-0.306c-0.045-0.037-0.09-0.075-0.141-0.114
			c-0.64-0.471-1.242-1.015-1.824-1.535c-0.289-0.259-0.576-0.516-0.867-0.766l-0.076-0.065c-0.46-0.39-1.033-0.878-1.015-1.706
			c0.005-0.25,0.118-0.362,0.212-0.413c0.259-0.137,0.605,0.038,0.913,0.228c1.036,0.607,1.79,1.384,2.589,2.203
			C52.307,37.604,52.394,37.679,52.506,37.777z M48.72,9.937l-0.138-0.024l-0.02-0.135c-0.15-0.974,1.357-1.986,2.259-2.59
			c0.12-0.082,0.228-0.153,0.31-0.212c0.359-0.257,0.628-0.406,0.909-0.564c0.191-0.106,0.394-0.217,0.644-0.375
			c0.06-0.037,0.123-0.082,0.188-0.127c0.255-0.177,0.566-0.413,0.905-0.362c0.145,0.014,0.279,0.075,0.401,0.182
			c0.174,0.152,0.201,0.312,0.189,0.419c-0.032,0.361-0.491,0.636-0.859,0.856c-0.101,0.061-0.188,0.11-0.238,0.152
			c-0.168,0.133-0.258,0.18-0.344,0.227c-0.07,0.035-0.143,0.075-0.274,0.171c-0.222,0.163-0.566,0.476-0.897,0.781
			c-0.908,0.829-1.203,1.065-1.426,1.06c-0.08,0.049-0.154,0.102-0.229,0.152c-0.281,0.194-0.593,0.414-1.082,0.414
			C48.924,9.961,48.826,9.953,48.72,9.937z M60.259,22.624c0.022,0.137,0.017,0.478-0.509,0.711
			c-0.502,0.221-0.887,0.292-1.23,0.292c-0.309,0-0.582-0.057-0.877-0.118c-0.388-0.084-0.789-0.178-1.364-0.143
			c-0.083,0.002-0.198,0.019-0.33,0.036c-0.501,0.069-0.899,0.112-1.127-0.042l-0.002-0.002c-0.009-0.005-0.015-0.007-0.045-0.013
			s-0.069-0.013-0.112-0.032l-0.059-0.021c-0.055-0.017-0.117-0.041-0.151-0.058c-0.085-0.045-0.581-0.482-0.548-0.744l0.018-0.132
			l0.158-0.063c0.336-0.083,0.597-0.145,0.854-0.206l0.008-0.008c0.102-0.077,0.298-0.146,1.443,0.008l0.053,0.007
			c0.229,0.028,0.361,0.051,0.45,0.066c0.144,0.025,0.143,0.025,0.335,0c0.09-0.012,0.217-0.026,0.406-0.047
			c0.178-0.02,0.357-0.053,0.537-0.087c0.354-0.069,0.723-0.145,1.092-0.101C59.781,21.974,60.201,22.268,60.259,22.624z"/>
	</defs>
	<clipPath id="SVGID_6_">
		<use xlink:href="#SVGID_5_"  overflow="visible"/>
	</clipPath>
	<g clip-path="url(#SVGID_6_)">
		<defs>
			<rect id="SVGID_7_" y="5" width="67" height="60"/>
		</defs>
		<clipPath id="SVGID_8_">
			<use xlink:href="#SVGID_7_"  overflow="visible"/>
		</clipPath>
		<rect x="0.5" clip-path="url(#SVGID_8_)" fill="#42BEC6" width="64.766" height="61.223"/>
	</g>
</g>
</svg>
