<?xml version="1.0" encoding="utf-8"?>
<!-- Generator: Adobe Illustrator 16.0.0, SVG Export Plug-In . SVG Version: 6.00 Build 0)  -->
<!DOCTYPE svg PUBLIC "-//W3C//DTD SVG 1.1//EN" "http://www.w3.org/Graphics/SVG/1.1/DTD/svg11.dtd">
<svg version="1.1" id="Layer_1" xmlns="http://www.w3.org/2000/svg" xmlns:xlink="http://www.w3.org/1999/xlink" x="0px" y="0px"
	 width="31.75px" height="31.25px" viewBox="0 0 31.75 31.25" enable-background="new 0 0 31.75 31.25" xml:space="preserve">
<g>
	<defs>
		<path id="SVGID_1_" d="M15.373,30.578c5.98,0,10.828-0.366,10.828-0.818c0-0.453-4.848-0.819-10.828-0.819
			c-5.981,0-10.829,0.366-10.829,0.819C4.544,30.212,9.392,30.578,15.373,30.578"/>
	</defs>
	<clipPath id="SVGID_2_">
		<use xlink:href="#SVGID_1_"  overflow="visible"/>
	</clipPath>
	<rect x="0.169" y="23.94" opacity="0.5" clip-path="url(#SVGID_2_)" fill="#42BFC7" width="31.032" height="7.31"/>
</g>
<g>
	<defs>
		<path id="SVGID_3_" d="M24.633,0.228c-4.379-0.042-4.432-0.111-9.27-0.145C7.981,0.031,1.702-0.729,0.676,3.601
			c-1.3,5.49-1.176,14.329,4.472,16.802c5.15,2.255,8.28,0.444,8.28,5.812c0,0,2.043-3.945,6.459-4.068
			c9.686-0.267,10.827-4.661,11.138-10.451C31.076,3.138,32.434,0.303,24.633,0.228z M12.971,16.717
			c0.304,0.305,0.304,0.799,0,1.104c-0.153,0.15-0.352,0.227-0.552,0.227c-0.199,0-0.399-0.076-0.551-0.227l-1.193-1.193
			l-1.193,1.193c-0.305,0.303-0.798,0.303-1.103,0c-0.304-0.306-0.304-0.8,0-1.104l1.193-1.191l-1.193-1.192
			c-0.304-0.305-0.304-0.799,0-1.104c0.305-0.303,0.798-0.303,1.103,0l1.193,1.194l1.193-1.194c0.305-0.303,0.798-0.303,1.103,0
			c0.304,0.306,0.304,0.8,0,1.104l-1.193,1.192L12.971,16.717z M12.732,7.284H8.42c-0.377,0-0.681-0.307-0.681-0.683
			S8.043,5.921,8.42,5.921h4.312c0.376,0,0.681,0.305,0.681,0.681S13.108,7.284,12.732,7.284z M17.871,5.934h1.445V4.488
			c0-0.369,0.299-0.668,0.668-0.668s0.668,0.299,0.668,0.668v1.445h1.446c0.37,0,0.668,0.3,0.668,0.668
			c0,0.369-0.298,0.668-0.668,0.668h-1.446v1.445c0,0.37-0.299,0.668-0.668,0.668s-0.668-0.298-0.668-0.668V7.27h-1.445
			c-0.369,0-0.668-0.299-0.668-0.668C17.203,6.233,17.502,5.934,17.871,5.934z M22.326,17.515h-4.455
			c-0.389,0-0.705-0.314-0.705-0.704c0-0.389,0.316-0.703,0.705-0.703h4.455c0.389,0,0.703,0.314,0.703,0.703
			C23.029,17.2,22.715,17.515,22.326,17.515z M22.326,14.735h-4.455c-0.389,0-0.705-0.315-0.705-0.704
			c0-0.39,0.316-0.704,0.705-0.704h4.455c0.389,0,0.703,0.314,0.703,0.704C23.029,14.42,22.715,14.735,22.326,14.735z"/>
	</defs>
	<clipPath id="SVGID_4_">
		<use xlink:href="#SVGID_3_"  overflow="visible"/>
	</clipPath>
	<rect clip-path="url(#SVGID_4_)" fill="#42BFC7" width="31.75" height="31.214"/>
</g>
</svg>
