<svg id="MS_Icons_CMYK" data-name="MS Icons CMYK" xmlns="http://www.w3.org/2000/svg" viewBox="0 0 32 32"><defs><style>.cls-3{fill:#fff}</style></defs><path d="M15.79 31.86c6 0 10.83-.36 10.83-.82s-4.85-.82-10.83-.82S5 30.59 5 31s4.85.82 10.83.82" opacity=".25" fill="#0047f5"/><path d="M25.07 2c-4.38-.05-4.43-.12-9.28-.15-2 0-4-.08-5.79-.08-4.68 0-8.18.47-8.92 3.6-1.3 5.52-1.18 14.38 4.48 16.85 5.16 2.26 8.29.45 8.29 5.82A8 8 0 0 1 20.32 24c9.68-.3 10.84-4.7 11.16-10.5.05-8.57 1.41-11.41-6.41-11.5z" fill="#0047f5"/><path class="cls-3" d="M16 17.27c-.61 0-.37-.25-.37-.55l-.75-10.47c0-.3.51-.54 1.12-.54.61 0 1.12.24 1.12.54l-.78 10.47c0 .28.19.55-.34.55z"/><circle class="cls-3" cx="16" cy="18.52" r=".8"/></svg>