<svg id="Layer_1" data-name="Layer 1" xmlns="http://www.w3.org/2000/svg" viewBox="0 0 69.07 20.96"><defs><style>.cls-1{fill:#096;}.cls-2{fill:#009;}.cls-3{fill:#fff;}.cls-4{fill:#d22631;}.cls-5{fill:#ffc72c;}</style></defs><path class="cls-1" d="M37.71,0H69.12V3.65H37.71Z"/><path class="cls-2" d="M37.71,4.72H69.12V16.27H37.71Z"/><path class="cls-1" d="M37.71,17.34H69.12V21H37.71Z"/><path d="M37.71,3.65H69.12V4.72H37.71Zm0,12.62H69.12v1.07H37.71Z"/><path class="cls-3" d="M51.22,14.7,47.64,16h0l0-.06,1.83-1.74a.11.11,0,0,0,0-.13c-.1-.21-.2-.42-.29-.64a11.7,11.7,0,0,1-.66-2.33,7.72,7.72,0,0,1-.11-1.17,4.32,4.32,0,0,1,1-2.83,5.73,5.73,0,0,1,1.88-1.5A6.82,6.82,0,0,1,52.76,5l.1,0L53.4,7.2c.11-.36.2-.72.29-1.08s.18-.73.27-1.1l.1,0A6.61,6.61,0,0,1,56,5.86,5.75,5.75,0,0,1,57.5,7.3a4.17,4.17,0,0,1,.78,1.88,4.63,4.63,0,0,1,0,1,10.22,10.22,0,0,1-.48,2.45,8.71,8.71,0,0,1-.48,1.23l-.12.27,2,1.86h0L55.61,14.7V11.29c0-.32,0-.64,0-.95a1.44,1.44,0,0,0-.36-.9,2.54,2.54,0,0,0-1.53-.84,2.46,2.46,0,0,0-2.23,1,1.52,1.52,0,0,0-.26.85V14.7Z"/><path class="cls-3" d="M53.42,8.9l.43,1.42,1.48,0a5.23,5.23,0,0,1-.56.48l-.57.47.44,1.53a2.79,2.79,0,0,1-.31-.24l-.3-.23-.3-.23-.32-.23-1.21.92h0l.43-1.51-1.14-.93v0h.85l.64,0L53.4,8.9Z"/><path class="cls-4" d="M0,10.47H31.31V20.93H0Z"/><path d="M0,0H31.31V10.47H0Z"/><path class="cls-5" d="M10.51,10.47a5.18,5.18,0,1,1,5.19,5.17h0A5.19,5.19,0,0,1,10.51,10.47Z"/></svg>