<svg xmlns="http://www.w3.org/2000/svg" xmlns:xlink="http://www.w3.org/1999/xlink" viewBox="0 0 61.44 76"><defs><style>.a,.b{fill:none;}.a{clip-rule:evenodd;}.c{clip-path:url(#a);}.d{clip-path:url(#b);}.e,.f,.g{fill:#42bfc7;}.e{opacity:0.5;}.f{fill-rule:evenodd;}</style><clipPath id="a" transform="translate(0 0)"><path class="a" d="M30.72,75.09c14.2,0,25.72-.87,25.72-1.94s-11.52-2-25.72-2S5,72.07,5,73.15s11.51,1.94,25.72,1.94"/></clipPath><clipPath id="b" transform="translate(0 0)"><rect class="b" x="4.01" y="69.17" width="53.17" height="6.83"/></clipPath></defs><title>icon-calendar</title><g class="c"><g class="d"><rect class="e" y="66.2" width="61.44" height="9.8"/></g></g><polygon class="f" points="11.66 9.3 19.41 53.28 10.02 53.28 11.66 9.3"/><polygon class="f" points="0.47 50.32 10.82 8.6 9.26 50.32 0.47 50.32"/><path class="g" d="M52.17,4.88v0c.08-2-.08-3.29-.83-4.1A2.19,2.19,0,0,0,49.69,0a3,3,0,0,0-2,.88,6.18,6.18,0,0,0-1.59,3.94H43.57c.09-2-.07-3.29-.82-4.1A2.19,2.19,0,0,0,41.11,0a3,3,0,0,0-2,.88c-.55.5-1.31,1.61-1.6,3.94H35c.08-2-.08-3.29-.83-4.1A2.18,2.18,0,0,0,32.53,0a3,3,0,0,0-2,.88,6.12,6.12,0,0,0-1.6,3.94H26.4c.09-2-.07-3.29-.82-4.1A2.19,2.19,0,0,0,23.94,0a3,3,0,0,0-2,.88c-.55.5-1.31,1.61-1.6,3.94H17.83c.09-2-.08-3.28-.84-4.1A2.16,2.16,0,0,0,15.36,0a3,3,0,0,0-2,.9c-.56.49-1.33,1.59-1.61,3.93h0L20.68,55.5h5.47a2.17,2.17,0,0,1,.94.19c2.81,1.28,4.35,3.58,4.35,9.39,0,0,4.25-8.2,13.39-9.58H61.1Zm-36.08,0H13.53a4.51,4.51,0,0,1,1-2.65,1.4,1.4,0,0,1,.83-.44C16.11,1.74,16.17,3.38,16.09,4.83ZM40.28,2.19a1.39,1.39,0,0,1,.83-.44c.76,0,.81,1.64.74,3.08H39.28A4.49,4.49,0,0,1,40.28,2.19Zm-8.58,0a1.34,1.34,0,0,1,.83-.44c.75,0,.8,1.64.73,3.08H30.7A4.49,4.49,0,0,1,31.7,2.19Zm-7,2.64H22.12a4.36,4.36,0,0,1,1-2.64,1.35,1.35,0,0,1,.82-.44C24.7,1.75,24.75,3.39,24.68,4.83ZM38.75,39.39a5.91,5.91,0,0,1-.53,1.53,5.11,5.11,0,0,1-4.37,2.59H31.67a2.84,2.84,0,0,1-.87,0,.24.24,0,0,1-.16-.28c0-.08.09-.12.16-.16A.42.42,0,0,0,31,43c0-.06.05-.16,0-.2l-.09,0a.75.75,0,0,1-.29-.09s-.07,0-.07-.07a.11.11,0,0,1,0-.08c.27-.57,1.3-.36,1.8-.36h1.51A3.76,3.76,0,0,0,36,41.42a4.68,4.68,0,0,0,1.19-1.59,3.53,3.53,0,0,0,.37-2.1c-.06-.69-.07-1.37-.16-2.06a13.26,13.26,0,0,0-1.8-5.37,6.2,6.2,0,0,0-2-2,7.34,7.34,0,0,0-2.79-.87c-.21,0-.45-.11-.49-.63-.06-.74.79-.77,1.29-.9a2.8,2.8,0,0,0,1.06-.5c1.11-.87,1.16-2.69.81-3.94a9.68,9.68,0,0,0-1.26-2.68,9.59,9.59,0,0,0-1.12-1.48,5.8,5.8,0,0,0-2.37-1.33,3.39,3.39,0,0,0-2.73.28.78.78,0,0,1-.38.15c-.13,0-.29-.09-.29-.22a.39.39,0,0,1,.08-.2c.08-.11.15-.22.22-.33-.24-.08-.46.23-.72.21a.12.12,0,0,1-.12-.07.14.14,0,0,1,0-.09c.23-1,1.83-1.34,2.71-1.34a5.61,5.61,0,0,1,2.76.78,8.36,8.36,0,0,1,2.3,2,11.38,11.38,0,0,1,1,1.39,14.77,14.77,0,0,1,.77,1.72,6.09,6.09,0,0,1,.28.75,7,7,0,0,1,.14.8,10.44,10.44,0,0,1,.11,2.16,3.52,3.52,0,0,1-1.05,2.32c-.13.12-.42.21-.36.43s.32.22.45.29l.59.38a8.27,8.27,0,0,1,1.06.9,9.83,9.83,0,0,1,1.73,2.36,13.71,13.71,0,0,1,1.29,4A12.23,12.23,0,0,1,38.75,39.39Zm10.08,3.16c-.11.08-.23.2-.2.33s.22.22.21.36-.16.14-.27.16a7.72,7.72,0,0,1-1.07.09c-.48,0-1,0-1.58.06a.26.26,0,0,1,0,.08.68.68,0,0,1-.45.28h-.12c-.25,0-.38-.18-.58-.24a3.5,3.5,0,0,0-.91,0c-.59,0-1.17,0-1.76,0-.15,0-.35,0-.36-.18s.19-.28.12-.41-.18-.09-.27-.15-.1-.3,0-.4a.7.7,0,0,1,.44-.14c.39,0,.77,0,1.15-.1a4.54,4.54,0,0,0,1-.14c.35-.16.23-.47.17-.78s-.15-.84-.22-1.26l-.45-2.58-.09-.53c-.31-1.76-.6-3.52-.9-5.28s-.61-3.4-.72-5.13c0-.46-.07-.91-.13-1.37s-.13-.74-.21-1.11c-.23-1.08-.47-2.16-.7-3.25-.12-.59-.15-1.19-.24-1.79l-.3-2c-.05-.34,0-.67-.42-.37a6.31,6.31,0,0,0-.52.62c-.25.27-.67,1-1.07.63a1,1,0,0,1-.27-.45.77.77,0,0,1,0-.8,1.93,1.93,0,0,1,.27-.3l.78-.83c.3-.33.63-.64.92-1a.66.66,0,0,1,.88-.19,1.13,1.13,0,0,1,.5.85c.13.83.31,1.67.4,2.51s.33,1.64.49,2.45A48,48,0,0,1,43,25.53c0,.36.06.72.1,1.08l.09.61c0,.22.07.43.11.65s.13.39.17.61l.14.9.3,1.8c.19,1.19.4,2.39.6,3.58.3,1.76.6,3.51.91,5.27a10.17,10.17,0,0,1,.2,1.23c0,.2-.07.48,0,.66.26.42,1,.22,1.39.21s1.1,0,1.65,0l.24,0C49,42.33,48.93,42.46,48.83,42.55Zm1.6-37.72H47.87a4.49,4.49,0,0,1,1-2.64,1.37,1.37,0,0,1,.82-.45C50.45,1.74,50.5,3.39,50.43,4.83Z" transform="translate(0 0)"/></svg>