<?xml version="1.0" standalone="no"?>
<!DOCTYPE svg PUBLIC "-//W3C//DTD SVG 20010904//EN"
 "http://www.w3.org/TR/2001/REC-SVG-20010904/DTD/svg10.dtd">
<svg version="1.0" xmlns="http://www.w3.org/2000/svg"
 width="700.000000pt" height="700.000000pt" viewBox="0 0 700.000000 700.000000"
 preserveAspectRatio="xMidYMid meet">
<metadata>
Created by potrace 1.11, written by Peter Selinger 2001-2013
</metadata>
<g transform="translate(0.000000,700.000000) scale(0.100000,-0.100000)"
fill="#000000" stroke="none">
<path d="M1740 6430 c-677 -29 -1065 -134 -1328 -358 -109 -93 -204 -253 -247
-415 -50 -189 -99 -479 -132 -772 -26 -230 -26 -894 0 -1110 114 -949 468
-1580 1052 -1872 251 -126 514 -207 1115 -343 232 -52 353 -91 455 -143 147
-76 252 -208 304 -382 28 -93 51 -251 51 -352 0 -45 4 -84 9 -87 5 -3 20 13
34 37 14 24 57 84 95 133 291 376 665 614 1073 683 63 11 213 25 334 31 617
31 1055 121 1400 290 558 272 842 712 950 1475 46 329 68 871 69 1740 1 521
-4 590 -60 783 -73 250 -223 406 -480 498 -205 73 -398 101 -799 114 -434 14
-1712 35 -3315 54 -212 2 -473 1 -580 -4z m1899 -1018 c32 -102 37 -113 55
-108 52 15 166 16 231 4 65 -13 70 -15 68 -38 -1 -14 -5 -60 -8 -103 l-7 -78
-61 8 c-101 13 -207 7 -267 -16 -118 -44 -174 -142 -145 -253 26 -101 92 -137
330 -179 236 -42 323 -76 406 -159 187 -187 167 -505 -42 -667 -32 -25 -59
-50 -59 -56 0 -5 16 -61 36 -124 20 -63 34 -116 32 -118 -4 -4 -172 -55 -181
-55 -3 0 -23 52 -43 116 l-36 115 -57 -8 c-80 -11 -218 -6 -271 10 l-45 13 3
104 c2 57 4 106 6 107 2 2 32 -4 66 -13 89 -23 257 -16 321 13 139 63 194 192
135 318 -47 102 -125 142 -339 175 -210 33 -334 83 -408 167 -114 130 -130
340 -37 485 30 47 131 148 149 148 15 0 10 31 -26 144 -19 60 -34 110 -33 112
8 7 165 52 178 51 9 -2 27 -42 49 -115z m983 -392 c43 -33 71 -114 72 -205 0
-130 -40 -205 -110 -205 -105 0 -175 200 -120 343 31 81 102 112 158 67z
m-1804 -26 c54 -38 89 -170 73 -275 -21 -131 -97 -177 -175 -109 -47 42 -71
114 -70 210 1 116 48 190 119 190 17 0 41 -7 53 -16z m344 -2008 c25 -90 51
-139 106 -198 69 -73 128 -101 232 -106 74 -4 95 -1 160 23 41 14 82 29 91 31
12 4 26 -17 57 -86 23 -50 42 -92 42 -94 0 -7 -128 -55 -187 -70 -77 -20 -212
-20 -288 -1 -183 48 -336 200 -399 396 -43 137 -46 129 59 155 50 12 94 21 99
20 5 -1 18 -33 28 -70z"/>
</g>
</svg>
