<svg id="Layer_1" data-name="Layer 1" xmlns="http://www.w3.org/2000/svg" viewBox="0 0 32 29.89"><title>setting-icon</title><path d="M16,21.61a6.67,6.67,0,1,1,6.67-6.67A6.67,6.67,0,0,1,16,21.61Zm0-12a5.34,5.34,0,1,0,5.33,5.33A5.33,5.33,0,0,0,16,9.61ZM10.82,29.89a2.83,2.83,0,0,1-1-.21,16.21,16.21,0,0,1-3.45-2,2.59,2.59,0,0,1-1-2,2.56,2.56,0,0,1,.94-2,1.28,1.28,0,0,0,.18-1.75,10.6,10.6,0,0,1-1.19-2.07,1.3,1.3,0,0,0-1.6-.72,2.48,2.48,0,0,1-2.25-.2A2.57,2.57,0,0,1,.13,16.94a14.82,14.82,0,0,1-.13-2,15,15,0,0,1,.13-2A2.61,2.61,0,0,1,1.38,11a2.58,2.58,0,0,1,2.23-.21,1.29,1.29,0,0,0,1.62-.71A10.82,10.82,0,0,1,6.42,8a1.28,1.28,0,0,0-.18-1.75,2.6,2.6,0,0,1,.1-4.08,15.83,15.83,0,0,1,3.45-2,2.62,2.62,0,0,1,2.3.12,2.58,2.58,0,0,1,1.29,1.83,1.27,1.27,0,0,0,1.44,1,11.63,11.63,0,0,1,2.36,0,1.27,1.27,0,0,0,1.44-1A2.58,2.58,0,0,1,19.91.33a2.62,2.62,0,0,1,2.3-.12,15.83,15.83,0,0,1,3.45,2,2.6,2.6,0,0,1,.1,4.08A1.28,1.28,0,0,0,25.58,8a10.82,10.82,0,0,1,1.19,2.06,1.28,1.28,0,0,0,1.6.72,2.55,2.55,0,0,1,2.25.2,2.61,2.61,0,0,1,1.25,1.92,15,15,0,0,1,.13,2,14.82,14.82,0,0,1-.13,2,2.57,2.57,0,0,1-1.25,1.92,2.51,2.51,0,0,1-2.23.22l.22-.64-.24.62a1.3,1.3,0,0,0-1.6.72,10.6,10.6,0,0,1-1.19,2.07,1.28,1.28,0,0,0,.18,1.75,2.56,2.56,0,0,1,.94,2,2.59,2.59,0,0,1-1,2,16.21,16.21,0,0,1-3.45,2,2.65,2.65,0,0,1-2.3-.12,2.58,2.58,0,0,1-1.29-1.83,1.27,1.27,0,0,0-1.44-1,11.63,11.63,0,0,1-2.36,0,1.27,1.27,0,0,0-1.44,1,2.58,2.58,0,0,1-1.29,1.83A2.73,2.73,0,0,1,10.82,29.89ZM4,17.66a2.66,2.66,0,0,1,2.41,1.58,10.16,10.16,0,0,0,1,1.84,2.57,2.57,0,0,1-.41,3.54,1.28,1.28,0,0,0-.46,1,1.29,1.29,0,0,0,.52,1,14.62,14.62,0,0,0,3.16,1.83,1.31,1.31,0,0,0,1.13-.05,1.23,1.23,0,0,0,.63-.9A2.59,2.59,0,0,1,15,25.37a9,9,0,0,0,2.08,0,2.59,2.59,0,0,1,2.89,2.13,1.23,1.23,0,0,0,.63.9,1.31,1.31,0,0,0,1.13.05,14.62,14.62,0,0,0,3.16-1.83,1.29,1.29,0,0,0,.52-1,1.23,1.23,0,0,0-.45-1,2.59,2.59,0,0,1-.42-3.56,10.16,10.16,0,0,0,1.05-1.84,2.62,2.62,0,0,1,3.29-1.42h0v0a1.28,1.28,0,0,0,1.06-.11,1.32,1.32,0,0,0,.62-.95,14.1,14.1,0,0,0,.12-1.84,14.33,14.33,0,0,0-.12-1.84,1.32,1.32,0,0,0-.62-.94,1.26,1.26,0,0,0-1.07-.1,2.64,2.64,0,0,1-3.31-1.41A9.83,9.83,0,0,0,24.5,8.81a2.59,2.59,0,0,1,.41-3.55,1.25,1.25,0,0,0,.46-1,1.31,1.31,0,0,0-.52-1,15,15,0,0,0-3.16-1.82,1.28,1.28,0,0,0-1.13.05,1.23,1.23,0,0,0-.63.89A2.62,2.62,0,0,1,17,4.52a9,9,0,0,0-2.08,0,2.62,2.62,0,0,1-2.89-2.14,1.23,1.23,0,0,0-.63-.89,1.28,1.28,0,0,0-1.13-.05A15,15,0,0,0,7.15,3.26a1.31,1.31,0,0,0-.52,1,1.24,1.24,0,0,0,.45,1A2.59,2.59,0,0,1,7.5,8.81a9.83,9.83,0,0,0-1,1.84,2.62,2.62,0,0,1-3.29,1.41,1.3,1.3,0,0,0-1.09.1,1.32,1.32,0,0,0-.62.94,14.33,14.33,0,0,0-.12,1.84,14.1,14.1,0,0,0,.12,1.84,1.32,1.32,0,0,0,.62.95,1.22,1.22,0,0,0,1.07.09A2.85,2.85,0,0,1,4,17.66Z" style="fill:#0047f5;fill-rule:evenodd"/></svg>